<svg xmlns="http://www.w3.org/2000/svg" viewBox="0 0 64 64">
  <defs>
    <linearGradient id="bg" x1="0%" y1="0%" x2="100%" y2="100%">
      <stop offset="0%" stop-color="#818cf8"/>
      <stop offset="100%" stop-color="#4f46e5"/>
    </linearGradient>
  </defs>
  <!-- Background -->
  <rect x="0" y="0" width="64" height="64" rx="4" fill="url(#bg)"/>
  <!-- Lightbulb -->
  <circle cx="32" cy="24" r="12" fill="#fbbf24"/>
  <path d="M26 34 L26 40 Q26 44 32 44 Q38 44 38 40 L38 34" fill="#fbbf24"/>
  <!-- Bulb filament -->
  <path d="M29 20 Q32 26 35 20" stroke="#f59e0b" stroke-width="2" fill="none" stroke-linecap="round"/>
  <!-- Bulb base lines -->
  <line x1="27" y1="38" x2="37" y2="38" stroke="#d97706" stroke-width="1.5"/>
  <line x1="28" y1="41" x2="36" y2="41" stroke="#d97706" stroke-width="1.5"/>
  <!-- Rays -->
  <line x1="32" y1="6" x2="32" y2="10" stroke="#fff" stroke-width="2" stroke-linecap="round"/>
  <line x1="46" y1="24" x2="50" y2="24" stroke="#fff" stroke-width="2" stroke-linecap="round"/>
  <line x1="14" y1="24" x2="18" y2="24" stroke="#fff" stroke-width="2" stroke-linecap="round"/>
  <line x1="44" y1="12" x2="47" y2="9" stroke="#fff" stroke-width="2" stroke-linecap="round"/>
  <line x1="17" y1="9" x2="20" y2="12" stroke="#fff" stroke-width="2" stroke-linecap="round"/>
  <!-- Checkmark -->
  <circle cx="48" cy="48" r="10" fill="#22c55e"/>
  <path d="M43 48 L46 51 L53 44" stroke="#fff" stroke-width="2.5" fill="none" stroke-linecap="round" stroke-linejoin="round"/>
</svg>
